<svg xmlns="http://www.w3.org/2000/svg" viewBox="-23.767 147.634 349.043 89.866"><defs><style>.a{fill:#fff;}.b{fill:none;stroke:#58bc6e;stroke-miterlimit:10;stroke-width:0.5px;}.c{fill:#58bc6e;}</style></defs><g transform="translate(-79 86)"><g transform="translate(142.259 82.519)"><path class="a" d="M67.429,55.44a.475.475,0,0,1-.129-.388V24.417a.457.457,0,0,1,.517-.517h7.756c3.232,0,5.688.646,7.5,2.068,1.68,1.422,2.585,3.619,2.585,6.722a10.5,10.5,0,0,1-1.293,5.817,7.233,7.233,0,0,1-3.878,3.1.451.451,0,0,0-.259.129.127.127,0,0,0,.129.129c1.034,1.68,2.327,3.749,3.878,6.075,1.551,2.456,2.973,4.783,4.395,7.109,0,.129.129.259,0,.259,0,.129-.129.129-.259.129H86.3a.475.475,0,0,1-.388-.129c-.129,0-.129-.129-.259-.259-1.293-2.2-2.844-4.653-4.524-7.368s-2.844-4.395-3.361-5.171a.278.278,0,0,0-.259-.259h-7.5a.278.278,0,0,0-.259.259V55.052a.457.457,0,0,1-.517.517H67.688C67.559,55.57,67.429,55.57,67.429,55.44Zm8.014-15.124a10.711,10.711,0,0,0,4.395-.776,4.54,4.54,0,0,0,2.327-2.327,9.672,9.672,0,0,0,.776-4.266,8.843,8.843,0,0,0-.776-4.007,5.1,5.1,0,0,0-2.456-2.2,14.007,14.007,0,0,0-4.524-.646H70.015a.278.278,0,0,0-.259.259V39.929a.278.278,0,0,0,.259.259h5.429Z" transform="translate(-67.3 -18.988)"/><path class="a" d="M101.5,54.336a19.568,19.568,0,0,1-4.136.388c-4.007,0-7.109-1.034-8.919-3.1C86.5,49.553,85.6,46.321,85.6,41.8c0-4.007.9-7.109,2.715-9.436S92.839,29,96.587,29s6.334,1.034,7.756,2.973a14.112,14.112,0,0,1,2.2,8.144,6.869,6.869,0,0,1-.129,1.81.343.343,0,0,1-.388.388H88.315c-.129,0-.259.129-.259.388q0,5.041,2.327,7.368c1.551,1.551,3.878,2.456,7.239,2.456a29.41,29.41,0,0,0,3.361-.259,12.291,12.291,0,0,0,2.844-.9h.259a.127.127,0,0,1,.129.129l.129.129.388,1.293v.129a.4.4,0,0,1-.129.259c0,.129-.129.129-.259.129A12.235,12.235,0,0,1,101.5,54.336ZM88.315,40.246h15.512c.129,0,.259,0,.259-.129v-.259a13.5,13.5,0,0,0-.776-4.912,5.617,5.617,0,0,0-2.456-2.973,9.364,9.364,0,0,0-4.524-1.034c-2.844,0-4.912.9-6.2,2.585a10.9,10.9,0,0,0-2.068,6.334C88.056,40.117,88.185,40.246,88.315,40.246Z" transform="translate(-61.945 -17.496)"/><path class="a" d="M123.243,51.392a1.648,1.648,0,0,0,.517.776,2.581,2.581,0,0,0,1.163.259h1.551c.259,0,.517.129.517.388v.776c0,.259-.129.388-.388.517a11.384,11.384,0,0,1-2.2.259,3.838,3.838,0,0,1-2.327-.646,2.662,2.662,0,0,1-.776-2.2.129.129,0,1,0-.259,0c-1.293,2.068-3.749,3.1-7.239,3.1a17.709,17.709,0,0,1-5.041-.646,5.109,5.109,0,0,1-3.1-2.2,7.386,7.386,0,0,1-1.163-4.395,7.547,7.547,0,0,1,1.163-4.524,5.985,5.985,0,0,1,3.1-2.2,17.709,17.709,0,0,1,5.041-.646,32.852,32.852,0,0,1,4.007.259,8.392,8.392,0,0,1,2.715.9h.129l.129-.129v-3.1a11.27,11.27,0,0,0-.646-4.007,3.855,3.855,0,0,0-2.2-2.068,13.442,13.442,0,0,0-4.524-.646,12.541,12.541,0,0,0-2.2.129c-.776,0-1.551.129-2.2.129h-.129c-.129,0-.129,0-.259-.129-.129,0-.129-.129-.129-.259V29.8c0-.259.129-.388.388-.517a30.522,30.522,0,0,1,4.524-.388,17.228,17.228,0,0,1,5.688.776,5.459,5.459,0,0,1,3.1,2.456,9.73,9.73,0,0,1,1.034,4.783V49.97A5.021,5.021,0,0,0,123.243,51.392ZM119.107,51a5.935,5.935,0,0,0,1.81-4.653,4.623,4.623,0,0,0-.646-2.715,3.049,3.049,0,0,0-2.068-1.293,16.948,16.948,0,0,0-4.266-.388,17.943,17.943,0,0,0-4.136.388,3.765,3.765,0,0,0-2.327,1.551,6.158,6.158,0,0,0-.776,3.361,5.513,5.513,0,0,0,.776,3.1,3.854,3.854,0,0,0,2.2,1.551,16.743,16.743,0,0,0,4.007.388C116.134,52.426,117.943,52.038,119.107,51Z" transform="translate(-56.414 -17.525)"/><path class="a" d="M135.192,54.594c-4.007,0-6.98-1.034-8.919-2.973-1.939-2.068-2.973-5.3-2.973-9.824,0-4.395,1.034-7.627,2.973-9.695s5.041-3.1,8.919-3.1a16.481,16.481,0,0,1,2.456.129q1.163.194,1.939.388c.259.129.388.259.388.517l-.259,1.422c0,.129-.129.129-.129.259h-.259a12.565,12.565,0,0,0-4.007-.517c-3.361,0-5.688.9-7.239,2.585s-2.2,4.395-2.2,8.014a15.552,15.552,0,0,0,.9,5.946,6.843,6.843,0,0,0,3.1,3.49,11.457,11.457,0,0,0,5.558,1.163,15.124,15.124,0,0,0,4.136-.517h.129c.129,0,.259.129.388.259l.259,1.293v.129c0,.129,0,.129-.129.259a.451.451,0,0,1-.259.129A13.831,13.831,0,0,1,135.192,54.594Z" transform="translate(-50.913 -17.496)"/><path class="a" d="M144.8,51.933a2.37,2.37,0,0,0,.9,1.293,3.424,3.424,0,0,0,1.81.388h2.327a.343.343,0,0,1,.388.388v1.034c0,.129,0,.129-.129.259s-.129.129-.259.129c-.388,0-.9.129-1.422.129s-1.034.129-1.422.129a6.132,6.132,0,0,1-2.973-.517,3.565,3.565,0,0,1-1.551-1.81,11.036,11.036,0,0,1-.517-3.49V33.319a.127.127,0,0,0-.129-.129.451.451,0,0,0-.259-.129h-3.749a.457.457,0,0,1-.517-.517V31.38a.457.457,0,0,1,.517-.517h3.749a.278.278,0,0,0,.259-.259V24.917a.457.457,0,0,1,.517-.517h1.551a.457.457,0,0,1,.517.517V30.6a.278.278,0,0,0,.259.259h5.171a.457.457,0,0,1,.517.517v1.163a.457.457,0,0,1-.517.517h-5.171c-.129,0-.129,0-.259.129l-.129.129V49.606C144.539,50.511,144.668,51.416,144.8,51.933Z" transform="translate(-46.816 -18.842)"/><path class="a" d="M155.034,31.9a.475.475,0,0,1,.129.388V55.813a.475.475,0,0,1-.129.388c-.129.129-.129.129-.388.129h-1.551a.457.457,0,0,1-.517-.517V34.226a.127.127,0,0,0-.129-.129.451.451,0,0,0-.259-.129h-2.973a.457.457,0,0,1-.517-.517V32.287a.457.457,0,0,1,.517-.517h5.171C154.9,31.77,155.034,31.77,155.034,31.9Zm.517-9.953A2.185,2.185,0,1,1,154,21.3,3.981,3.981,0,0,1,155.551,21.946Z" transform="translate(-43.48 -19.749)"/><path class="a" d="M166.078,53.472c-1.551-3.49-3.1-7.5-4.912-12.151s-3.1-8.273-4.136-11.117a1.337,1.337,0,0,0-.129-.517c0-.129,0-.129.129-.259,0-.129.129-.129.259-.129h1.68c.259,0,.517.129.517.388,1.163,3.361,2.456,7.239,4.136,11.634s2.973,7.627,3.878,9.824c.129.129.259.259.388.259h.259l.129-.129c.9-2.2,2.2-5.429,3.878-9.824s2.973-8.273,4.136-11.5c0-.129.129-.259.129-.388.129,0,.259-.129.388-.129h1.551c.129,0,.259,0,.259.129.129,0,.129.129.129.259l-.129.388c-1.034,2.844-2.327,6.592-4.136,11.375-1.81,4.653-3.361,8.661-4.783,12.021-.129.129-.129.259-.259.388a.475.475,0,0,1-.388.129h-2.327A1.062,1.062,0,0,1,166.078,53.472Z" transform="translate(-41.08 -17.408)"/><path class="a" d="M191.8,54.336a19.568,19.568,0,0,1-4.136.388c-4.007,0-7.109-1.034-8.919-3.1-1.939-2.068-2.844-5.3-2.844-9.824,0-4.007.9-7.109,2.715-9.436S183.139,29,186.887,29s6.334,1.034,7.756,2.973a14.112,14.112,0,0,1,2.2,8.144,6.868,6.868,0,0,1-.129,1.81.343.343,0,0,1-.388.388h-17.58c-.129,0-.259.129-.259.388q0,5.041,2.327,7.368c1.551,1.551,3.878,2.456,7.239,2.456a29.41,29.41,0,0,0,3.361-.259,12.292,12.292,0,0,0,2.844-.9h.259a.127.127,0,0,1,.129.129l.129.129.388,1.293v.129a.4.4,0,0,1-.129.259c0,.129-.129.129-.259.129A28.3,28.3,0,0,1,191.8,54.336Zm-13.185-14.09h15.512c.129,0,.259,0,.259-.129v-.259a13.5,13.5,0,0,0-.776-4.912,5.617,5.617,0,0,0-2.456-2.973,9.364,9.364,0,0,0-4.524-1.034c-2.844,0-4.912.9-6.2,2.585a10.9,10.9,0,0,0-2.068,6.334C178.227,40.117,178.356,40.246,178.615,40.246Z" transform="translate(-35.52 -17.496)"/><path class="a" d="M197.529,66.506c-.129-.129-.129-.129-.129-.388v-45.5a.457.457,0,0,1,.517-.517h1.034a.457.457,0,0,1,.517.517v45.63a.457.457,0,0,1-.517.517h-1.034C197.788,66.635,197.659,66.635,197.529,66.506Z" transform="translate(-29.228 -20.1)"/></g><g transform="translate(55.524 61.884)"><circle class="a" cx="4.007" cy="4.007" r="4.007" transform="translate(39.038 40.629)"/><path class="b" d="M24.5,18.495c9.953,4.266,20.036,8.531,29.343,14.219S71.683,45.382,77.758,54.43a10.636,10.636,0,0,1,1.551,3.232,3.527,3.527,0,0,1-.9,3.361,4.786,4.786,0,0,1-3.749.776c-5.688-.646-11.117-2.715-16.287-5.041C50.354,53.138,42.6,49,34.843,44.735,24.114,38.919,13.385,33.1,3.949,25.6c-1.163-.9-2.327-2.2-2.068-3.619,2.068-1.034,4.524-.259,6.592.388A266.7,266.7,0,0,1,58.239,46.157C63.41,49.389,68.58,52.75,72.717,57.274c1.293,1.422,2.327,3.749.9,4.912a2.786,2.786,0,0,1-2.068.517,28.085,28.085,0,0,1-8.014-1.293,132.557,132.557,0,0,1-59.59-34c-1.163-1.163-2.456-3.1-1.422-4.395a3.51,3.51,0,0,1,2.2-1.034c3.49-.517,7.109.129,10.47.776A126.744,126.744,0,0,1,65.478,44.994,26.636,26.636,0,0,1,72.2,51.457c.776,1.034,1.163,2.715.129,3.619a2.512,2.512,0,0,1-1.68.388,36.411,36.411,0,0,1-9.824-1.68A145.023,145.023,0,0,1,4.336,24.053c-1.551-1.293-3.1-2.973-2.715-4.912,3.49-.517,7.109.517,10.47,1.551a214.146,214.146,0,0,1,24.689,9.953c13.185,6.334,26.37,13.7,35.677,24.948a7.9,7.9,0,0,1,1.68,2.844,2.856,2.856,0,0,1-.9,2.973,3.793,3.793,0,0,1-2.068.517,33.494,33.494,0,0,1-8.79-1.163c-15.253-3.878-29.084-12.021-41.881-21.2C15.582,35.946,10.67,32.2,6.663,27.543c-1.551-1.81-2.844-4.266-1.68-6.334,1.034-1.68,3.361-1.939,5.429-1.81,19.519.517,38.52,7.885,54.678,18.743a50.517,50.517,0,0,1,9.824,8.273A22.661,22.661,0,0,1,80.6,57.791a5.382,5.382,0,0,1-.388,3.49c-1.163,1.939-3.878,1.939-6.075,1.551a96.968,96.968,0,0,1-15.9-4.524c-18.485-6.98-37.357-15.77-50.283-30.894A38.5,38.5,0,0,1,2.01,18.236a3.65,3.65,0,0,1-.259-2.327c.388-1.422,2.2-1.81,3.749-1.81a36.358,36.358,0,0,1,9.695,1.68,138.325,138.325,0,0,1,32.962,12.8,77.312,77.312,0,0,1,26.24,23.4c1.293,1.939,2.585,4.266,2.068,6.592-3.361,1.293-7.109.776-10.729.129A120.67,120.67,0,0,1,6.922,30.9C4.207,28.577,1.622,25.992.2,22.761c1.163-1.422,3.361-1.163,5.171-.646a143.261,143.261,0,0,1,17.58,6.463A396.58,396.58,0,0,1,67.8,51.586" transform="translate(-0.2 3.779)"/><path class="b" d="M80.437,27.356A178.121,178.121,0,0,1,65.96,38.989C50.448,50.235,33,59.284,14.125,62.386A75.909,75.909,0,0,1,4.818,63.42c-.9,0-2.2,0-2.456-.9-.259-.776.388-1.551.9-2.2,9.565-10.858,21.846-18.872,34.126-26.5C48.768,26.709,60.4,19.6,73.069,15.076c1.81-.646,4.266-1.163,5.558.259-3.619,8.014-10.6,14.09-17.58,19.39A187.061,187.061,0,0,1,27.827,55.276c-6.334,3.1-12.926,5.817-19.907,6.2.129-1.293,1.163-2.327,2.068-3.232q6.98-6.98,14.348-13.573c9.824-8.79,20.294-17.192,32.445-22.1a40.824,40.824,0,0,1,16.029-3.232c1.293,0,2.973.388,3.49,1.551.517,1.034,0,2.327-.646,3.361-2.327,4.266-5.688,7.756-9.178,11.246A124.085,124.085,0,0,1,42.046,55.276a71.635,71.635,0,0,1-29.6,10.212c-1.68.129-3.878.129-5.041-1.422.9-2.973,3.1-5.429,5.3-7.627,3.878-3.878,8.014-7.627,12.28-11.246a138.624,138.624,0,0,1,23.4-16.416,72.633,72.633,0,0,1,27.145-8.661c.776,1.81-.259,3.878-1.551,5.558-5.558,7.885-13.443,13.7-21.587,19-11.634,7.5-24.3,13.96-37.874,15.512-3.361.388-7.109.517-10.083-1.293.517-2.2,2.327-3.749,4.007-5.3,9.695-8.144,19.519-16.287,30.377-23.009s22.621-12.151,35.03-14.348c1.68-.259,3.749-.259,4.395,1.293-2.068,5.171-5.817,9.436-9.824,13.314A114.69,114.69,0,0,1,38.685,52.691c-8.144,4.136-17.063,7.5-26.111,7.109-1.939-.129-4.136-.388-5.429-1.939A21.723,21.723,0,0,1,12.7,50.623a146.1,146.1,0,0,1,52.481-32.7c2.844-1.034,6.2-1.939,8.79-.517-.259,2.715-2.2,4.783-4.007,6.851C62.34,32.526,54.326,40.411,45.148,46.874S25.371,57.991,14.125,59.154A31.47,31.47,0,0,1,5.594,58.9C4.043,58.508,2.233,57.6,2.1,56.052A3.416,3.416,0,0,1,3.4,53.338a59.883,59.883,0,0,1,11.375-9.953,251.063,251.063,0,0,1,34.643-21.2c6.2-3.232,12.539-6.075,19.39-7.368a4.647,4.647,0,0,1,3.49.259c1.68,1.034,1.551,3.49,1.034,5.3a29.052,29.052,0,0,1-5.946,10.212A61.173,61.173,0,0,1,45.536,46.228a106.3,106.3,0,0,1-25.982,7.239c-2.844.388-5.946.776-8.144-1.034,1.81-4.266,5.946-6.851,9.953-9.307A394.873,394.873,0,0,1,63.5,21.151a47.45,47.45,0,0,1,12.28-4.136c1.293,1.034.517,3.232-.388,4.524-3.361,4.912-7.885,8.79-12.539,12.28C48.768,44.935,33,54.5,15.547,58.25c-2.973.646-6.722.9-8.661-1.551,1.422-3.361,4.395-5.817,7.239-8.014C28.344,37.826,42.951,27.485,58.2,18.049c2.973-1.81,6.2-3.749,9.695-3.749.646,2.456-.9,5.041-2.456,7.109A163.3,163.3,0,0,1,48.38,40.928" transform="translate(0.352 3.837)"/><path class="b" d="M43.578,10.133c1.939,7.5,4.266,75.1-6.334,73.68C28.584,82.779,27.291,8.97,35.306,5.35c9.824,9.565,10.858,32.316,11.246,44.984.259,6.463,1.034,35.418-8.531,28.438-7.627-5.688-8.531-31.023-8.531-39.425,0-5.041,5.688-39.555,10.083-36.84s15.512,55.454,8.273,75.361C42.286,93.25,34.4,88.208,29.359,76.316c-5.041-11.763-5.171-25.982-4.783-38.52.129-4.912.259-32.962,8.661-33.221,7.368-.259,10.341,27.016,10.987,31.8,1.939,13.314,2.585,28.05.129,41.364-2.585,14.348-7.627,16.029-12.28,1.81C25.611,59.9,15.916,22.413,28.842,3.541c7.756-11.5,12.021,10.47,13.831,17.58a150.047,150.047,0,0,1,4.266,37.874c-.129,4.524-.517,31.023-9.436,30.635-7.5-.388-10.6-31.928-11.246-37.616-1.422-12.8-2.327-28.05,1.68-40.459,4.395-13.831,9.695-6.592,13.314,3.361,5.041,13.7,7.109,29.214,7.368,43.82C48.749,65.587,47.586,96.61,36.6,87.95,27.55,80.84,21.087,6.643,34.013,3.411c14.219,14.348,9.953,53.257,7.109,71.095" transform="translate(6.317 -0.269)"/></g><g transform="translate(331.501 85.492)"><path class="c" d="M234.382,31.593a8.849,8.849,0,0,1,4.266,4.136,16.367,16.367,0,0,1,1.422,7.239,17.391,17.391,0,0,1-1.422,7.368,8.322,8.322,0,0,1-4.266,4.136,20.477,20.477,0,0,1-14.995,0,8.849,8.849,0,0,1-4.266-4.136,16.979,16.979,0,0,1-1.422-7.368,16.366,16.366,0,0,1,1.422-7.239,8.849,8.849,0,0,1,4.266-4.136,22.388,22.388,0,0,1,14.995,0Zm-4.007,16.158a9.053,9.053,0,0,0,1.034-4.783,9.053,9.053,0,0,0-1.034-4.783,4.7,4.7,0,0,0-6.98,0,9.053,9.053,0,0,0-1.034,4.783,13.4,13.4,0,0,0,.388,3.619,3.222,3.222,0,0,0,1.422,1.939,5.253,5.253,0,0,0,2.715.646A3.7,3.7,0,0,0,230.375,47.751Z" transform="translate(-213.7 -20.088)"/><path class="c" d="M236.217,30.817a.475.475,0,0,1,.388-.129h7.368a.457.457,0,0,1,.517.517v2.068c0,.129,0,.259.129.259s.129,0,.259-.129c1.551-2.068,4.007-3.1,7.109-3.1a11.878,11.878,0,0,1,5.429,1.034,5.574,5.574,0,0,1,2.585,3.1,19.384,19.384,0,0,1,.646,5.429V54.989a.457.457,0,0,1-.517.517h-7.368a.457.457,0,0,1-.517-.517V41.417a13.717,13.717,0,0,0-.259-2.715,2,2,0,0,0-1.034-1.422,3.457,3.457,0,0,0-2.2-.517,4.779,4.779,0,0,0-2.715.776,4.378,4.378,0,0,0-1.551,2.327,11.382,11.382,0,0,0-.388,3.361V54.86a.457.457,0,0,1-.517.517h-7.368a.457.457,0,0,1-.517-.517V31.2A.878.878,0,0,0,236.217,30.817Z" transform="translate(-207.262 -20.088)"/><path class="c" d="M260.295,57.56a.457.457,0,0,1-.517-.517V40.109a.278.278,0,0,0-.259-.259h-3.1a.457.457,0,0,1-.517-.517V33.517a.457.457,0,0,1,.517-.517h3.1a.278.278,0,0,0,.259-.259V31.19c0-2.973.9-5.171,2.585-6.592s4.266-2.2,7.756-2.2a9.784,9.784,0,0,1,1.939.129,5.064,5.064,0,0,1,1.68.259.451.451,0,0,1,.259.129c0,.129.129.259.129.388v5.429c0,.129,0,.259-.129.259-.129.129-.129.129-.259.129H271.67a4.623,4.623,0,0,0-2.715.646,2.545,2.545,0,0,0-.776,2.068v.646a.278.278,0,0,0,.259.259h3.749a.457.457,0,0,1,.517.517V39.2a.457.457,0,0,1-.517.517h-3.749a.278.278,0,0,0-.259.259V56.913a.457.457,0,0,1-.517.517h-7.368Z" transform="translate(-201.351 -22.4)"/></g><path class="c" d="M216.451,49.26h0q-.969.194-2.327.388a16.482,16.482,0,0,1-2.456.129A11.882,11.882,0,0,1,206.885,49a4.856,4.856,0,0,1-2.585-2.715,13.3,13.3,0,0,1-.776-5.041,14.524,14.524,0,0,1,.776-5.171,5.108,5.108,0,0,1,2.585-2.844,10.414,10.414,0,0,1,4.912-.9,16.482,16.482,0,0,1,2.456.129c.9.129,1.551.129,2.068.259.259,0,.388,0,.517-.259l1.034-6.592c0-.259-.129-.388-.388-.517a15.574,15.574,0,0,0-2.973-.517,31.5,31.5,0,0,0-3.49-.129c-5.3,0-9.307,1.293-11.892,3.749L199,53.914a11.057,11.057,0,0,0,2.844,1.939,20.571,20.571,0,0,0,9.048,1.68,33.872,33.872,0,0,0,3.619-.129,12.518,12.518,0,0,0,2.844-.517c.259-.129.388-.259.388-.517V56.24l-.776-6.463C216.838,49.389,216.58,49.26,216.451,49.26Z" transform="translate(113.499 63.765)"/></g></svg>
